# xmcd
#
# Track frame offsets:
#   150
#   17360
#   36071
#   54688
#   71240
#   93070
#   109485
#   130568
#   144381
#   162608
#   179922
#
# Disc length: 2630 seconds
#
# Revision: 0
# Processed by: cddbd v1.5.1PL2 Copyright (c) Steve Scherf et al.
# Submitted via: uFREEDB ActiveX Control 1.5
#
DISCID=9a0a440b
DTITLE=EDER E ENRIQUE - EDER E ENRIQUE
DYEAR=2006
DGENRE=Country
TTITLE0=SONHO DE AMOR
TTITLE1=PONTO FINAL
TTITLE2=ADRENALINA E PAIXÃO
TTITLE3=PAIXÃO DEMAIS
TTITLE4=RIOZINHO
TTITLE5=FÉRIAS
TTITLE6=NUNCA VOU DIZER ADEUS
TTITLE7=POR AMOR
TTITLE8=CORAÇÃO QUEBRADO
TTITLE9=É SÓ DIZER QUE SIM
TTITLE10=A GENTE PEDE MAIS
EXTD=
EXTT0=
EXTT1=
EXTT2=
EXTT3=
EXTT4=
EXTT5=
EXTT6=
EXTT7=
EXTT8=
EXTT9=
EXTT10=
PLAYORDER=
